<mxfile host="65bd71144e">
    <diagram id="bvJyozwJtaxtsE2B_y3F" name="Page-1">
        <mxGraphModel dx="1804" dy="643" grid="1" gridSize="10" guides="1" tooltips="1" connect="1" arrows="1" fold="1" page="1" pageScale="1" pageWidth="850" pageHeight="1100" background="none" math="1" shadow="0">
            <root>
                <mxCell id="0"/>
                <mxCell id="1" parent="0"/>
                <mxCell id="73" value="" style="rounded=0;whiteSpace=wrap;html=1;fillColor=none;dashed=1;strokeWidth=6;strokeColor=#636363;" parent="1" vertex="1">
                    <mxGeometry x="100" y="170" width="620" height="560" as="geometry"/>
                </mxCell>
                <mxCell id="6" value="" style="ellipse;whiteSpace=wrap;html=1;aspect=fixed;fontSize=17;fillColor=#666666;strokeColor=#2D7600;fontColor=#ffffff;gradientColor=default;" parent="1" vertex="1">
                    <mxGeometry x="-70" y="220" width="120" height="120" as="geometry"/>
                </mxCell>
                <mxCell id="7" value="&lt;b style=&quot;font-size: 22px;&quot;&gt;Eingabe&lt;/b&gt;" style="text;html=1;strokeColor=none;fillColor=none;align=center;verticalAlign=middle;whiteSpace=wrap;rounded=0;fontSize=22;fontColor=#FFFFFF;" parent="1" vertex="1">
                    <mxGeometry x="-40" y="265" width="60" height="30" as="geometry"/>
                </mxCell>
                <mxCell id="8" value="" style="ellipse;whiteSpace=wrap;html=1;aspect=fixed;fontSize=17;fillColor=#666666;strokeColor=#2D7600;fontColor=#ffffff;gradientColor=default;" parent="1" vertex="1">
                    <mxGeometry x="-70" y="220" width="120" height="120" as="geometry"/>
                </mxCell>
                <mxCell id="19" value="&lt;b style=&quot;font-size: 22px;&quot;&gt;Eingabe&lt;br&gt;S&lt;br&gt;&lt;/b&gt;" style="text;html=1;strokeColor=none;fillColor=none;align=center;verticalAlign=middle;whiteSpace=wrap;rounded=0;fontSize=22;fontColor=#FFFFFF;" parent="1" vertex="1">
                    <mxGeometry x="-40" y="265" width="60" height="30" as="geometry"/>
                </mxCell>
                <mxCell id="22" value="" style="shape=flexArrow;endArrow=classic;html=1;strokeColor=#66B2FF;strokeWidth=7;fontSize=17;fillColor=#f5f5f5;exitX=1;exitY=0.5;exitDx=0;exitDy=0;" parent="1" source="8" edge="1">
                    <mxGeometry width="50" height="50" relative="1" as="geometry">
                        <mxPoint x="92.42640687119274" y="279.93" as="sourcePoint"/>
                        <mxPoint x="190" y="280" as="targetPoint"/>
                    </mxGeometry>
                </mxCell>
                <mxCell id="24" value="&lt;font face=&quot;Noto Sans Math&quot;&gt;&lt;i&gt;&lt;svg style=&quot;vertical-align: -0.025ex;&quot; xmlns:xlink=&quot;http://www.w3.org/1999/xlink&quot; viewBox=&quot;0 -442 600 453&quot; role=&quot;img&quot; height=&quot;1.025ex&quot; width=&quot;1.357ex&quot; xmlns=&quot;http://www.w3.org/2000/svg&quot;&gt;&lt;defs&gt;&lt;path d=&quot;M21 287Q22 293 24 303T36 341T56 388T89 425T135 442Q171 442 195 424T225 390T231 369Q231 367 232 367L243 378Q304 442 382 442Q436 442 469 415T503 336T465 179T427 52Q427 26 444 26Q450 26 453 27Q482 32 505 65T540 145Q542 153 560 153Q580 153 580 145Q580 144 576 130Q568 101 554 73T508 17T439 -10Q392 -10 371 17T350 73Q350 92 386 193T423 345Q423 404 379 404H374Q288 404 229 303L222 291L189 157Q156 26 151 16Q138 -11 108 -11Q95 -11 87 -5T76 7T74 17Q74 30 112 180T152 343Q153 348 153 366Q153 405 129 405Q91 405 66 305Q60 285 60 284Q58 278 41 278H27Q21 284 21 287Z&quot; id=&quot;MJX-4-TEX-I-1D45B&quot;&gt;&lt;/path&gt;&lt;/defs&gt;&lt;g transform=&quot;scale(1,-1)&quot; stroke-width=&quot;0&quot; fill=&quot;currentColor&quot; stroke=&quot;currentColor&quot;&gt;&lt;g data-mml-node=&quot;math&quot;&gt;&lt;g data-mml-node=&quot;mi&quot;&gt;&lt;use xlink:href=&quot;#MJX-4-TEX-I-1D45B&quot; data-c=&quot;1D45B&quot;&gt;&lt;/use&gt;&lt;/g&gt;&lt;/g&gt;&lt;/g&gt;&lt;/svg&gt;&lt;/i&gt;&lt;/font&gt;&amp;nbsp;Zeichen" style="text;html=1;strokeColor=none;fillColor=#FFFFFF;align=center;verticalAlign=middle;whiteSpace=wrap;rounded=0;fontSize=21;fontStyle=1;fontColor=#000000;" parent="1" vertex="1">
                    <mxGeometry x="50" y="235" width="110" height="30" as="geometry"/>
                </mxCell>
                <mxCell id="37" value="&lt;font face=&quot;Noto Sans Math&quot; style=&quot;font-size: 21px;&quot;&gt;&lt;i style=&quot;font-size: 21px;&quot;&gt;\(z\)&lt;/i&gt;&lt;/font&gt; Faktoren" style="text;html=1;strokeColor=none;fillColor=#FFFFFF;align=center;verticalAlign=middle;whiteSpace=wrap;rounded=0;fontSize=21;fontStyle=1;fontColor=#000000;" parent="1" vertex="1">
                    <mxGeometry x="650" y="230" width="120" height="30" as="geometry"/>
                </mxCell>
                <mxCell id="43" value="" style="rounded=1;whiteSpace=wrap;html=1;fillColor=#1ba1e2;" parent="1" vertex="1">
                    <mxGeometry x="425" y="430" width="215" height="100" as="geometry"/>
                </mxCell>
                <mxCell id="44" value="&lt;b style=&quot;font-size: 22px;&quot;&gt;&lt;font style=&quot;font-size: 22px;&quot;&gt;Deterministische&amp;nbsp;&lt;br&gt;LZ77-Dekompression&lt;br&gt;&lt;/font&gt;&lt;/b&gt;" style="text;html=1;strokeColor=none;fillColor=none;align=center;verticalAlign=middle;whiteSpace=wrap;rounded=0;fontSize=22;fontColor=#FFFFFF;" parent="1" vertex="1">
                    <mxGeometry x="505" y="470" width="60" height="20" as="geometry"/>
                </mxCell>
                <mxCell id="45" value="" style="shape=flexArrow;endArrow=classic;html=1;strokeColor=#66B2FF;strokeWidth=7;fontSize=17;fillColor=#f5f5f5;" parent="1" edge="1">
                    <mxGeometry width="50" height="50" relative="1" as="geometry">
                        <mxPoint x="545" y="340" as="sourcePoint"/>
                        <mxPoint x="545" y="430" as="targetPoint"/>
                    </mxGeometry>
                </mxCell>
                <mxCell id="46" value="&lt;font face=&quot;Noto Sans Math&quot; style=&quot;font-size: 21px;&quot;&gt;&lt;i style=&quot;font-size: 21px;&quot;&gt;\(z'\)&lt;/i&gt;&lt;/font&gt; Faktoren" style="text;html=1;strokeColor=none;fillColor=none;align=center;verticalAlign=middle;whiteSpace=wrap;rounded=0;fontSize=21;fontStyle=1;fontColor=#000000;" parent="1" vertex="1">
                    <mxGeometry x="410" y="360" width="120" height="30" as="geometry"/>
                </mxCell>
                <mxCell id="47" value="" style="endArrow=classic;html=1;strokeColor=#66B2FF;strokeWidth=7;fontSize=17;fillColor=#f5f5f5;endFill=0;exitX=0;exitY=0.5;exitDx=0;exitDy=0;" parent="1" source="78" edge="1">
                    <mxGeometry width="50" height="50" relative="1" as="geometry">
                        <mxPoint x="250" y="460" as="sourcePoint"/>
                        <mxPoint x="260" y="350" as="targetPoint"/>
                        <Array as="points">
                            <mxPoint x="260" y="660"/>
                        </Array>
                    </mxGeometry>
                </mxCell>
                <mxCell id="48" value="&lt;font face=&quot;Noto Sans Math&quot;&gt;&lt;i&gt;\(S \neq S'\)&lt;/i&gt;&lt;/font&gt;" style="text;html=1;strokeColor=none;fillColor=none;align=center;verticalAlign=middle;whiteSpace=wrap;rounded=0;fontSize=21;fontStyle=1;fontColor=#000000;rotation=-90;" parent="1" vertex="1">
                    <mxGeometry x="180" y="450" width="120" height="30" as="geometry"/>
                </mxCell>
                <mxCell id="50" value="&lt;font face=&quot;Noto Sans Math&quot;&gt;&lt;i&gt;\(S = S'\)&lt;/i&gt;&lt;/font&gt;" style="text;html=1;strokeColor=none;fillColor=none;align=center;verticalAlign=middle;whiteSpace=wrap;rounded=0;fontSize=21;fontStyle=1;fontColor=#000000;rotation=-90;" parent="1" vertex="1">
                    <mxGeometry x="640" y="450" width="120" height="30" as="geometry"/>
                </mxCell>
                <mxCell id="66" value="" style="rounded=1;whiteSpace=wrap;html=1;fillColor=#1ba1e2;" parent="1" vertex="1">
                    <mxGeometry x="420" y="230" width="220" height="110" as="geometry"/>
                </mxCell>
                <mxCell id="67" value="" style="endArrow=none;html=1;strokeWidth=7;fontSize=20;fillColor=#b0e3e6;strokeColor=#66B2FF;" parent="1" edge="1">
                    <mxGeometry width="50" height="50" relative="1" as="geometry">
                        <mxPoint x="430" y="320" as="sourcePoint"/>
                        <mxPoint x="430" y="240" as="targetPoint"/>
                        <Array as="points">
                            <mxPoint x="460" y="280"/>
                        </Array>
                    </mxGeometry>
                </mxCell>
                <mxCell id="68" value="" style="endArrow=none;html=1;strokeWidth=7;fontSize=20;fillColor=#b0e3e6;strokeColor=#66B2FF;" parent="1" edge="1">
                    <mxGeometry width="50" height="50" relative="1" as="geometry">
                        <mxPoint x="470" y="320" as="sourcePoint"/>
                        <mxPoint x="470" y="240" as="targetPoint"/>
                        <Array as="points">
                            <mxPoint x="500" y="280"/>
                        </Array>
                    </mxGeometry>
                </mxCell>
                <mxCell id="69" value="" style="endArrow=none;html=1;strokeWidth=7;fontSize=20;fillColor=#b0e3e6;strokeColor=#66B2FF;" parent="1" edge="1">
                    <mxGeometry width="50" height="50" relative="1" as="geometry">
                        <mxPoint x="515" y="320" as="sourcePoint"/>
                        <mxPoint x="515" y="240" as="targetPoint"/>
                        <Array as="points">
                            <mxPoint x="545" y="280"/>
                        </Array>
                    </mxGeometry>
                </mxCell>
                <mxCell id="70" value="" style="endArrow=none;html=1;strokeWidth=7;fontSize=20;fillColor=#b0e3e6;strokeColor=#66B2FF;" parent="1" edge="1">
                    <mxGeometry width="50" height="50" relative="1" as="geometry">
                        <mxPoint x="560" y="320" as="sourcePoint"/>
                        <mxPoint x="560" y="240" as="targetPoint"/>
                        <Array as="points">
                            <mxPoint x="590" y="280"/>
                        </Array>
                    </mxGeometry>
                </mxCell>
                <mxCell id="71" value="" style="endArrow=none;html=1;strokeWidth=7;fontSize=20;fillColor=#b0e3e6;strokeColor=#66B2FF;" parent="1" edge="1">
                    <mxGeometry width="50" height="50" relative="1" as="geometry">
                        <mxPoint x="600" y="320" as="sourcePoint"/>
                        <mxPoint x="600" y="240" as="targetPoint"/>
                        <Array as="points">
                            <mxPoint x="630" y="280"/>
                        </Array>
                    </mxGeometry>
                </mxCell>
                <mxCell id="42" value="&lt;b style=&quot;font-size: 22px;&quot;&gt;&lt;font style=&quot;font-size: 22px;&quot;&gt;LZ77-Kompression&lt;br&gt;\((S,p_1,p_2,...)\)&lt;br&gt;&lt;/font&gt;&lt;/b&gt;" style="text;html=1;strokeColor=none;fillColor=none;align=center;verticalAlign=middle;whiteSpace=wrap;rounded=0;fontSize=22;fontColor=#FFFFFF;" parent="1" vertex="1">
                    <mxGeometry x="500" y="270" width="60" height="20" as="geometry"/>
                </mxCell>
                <mxCell id="77" value="Verlustfreie LZ77-Kompression" style="text;html=1;strokeColor=none;fillColor=#FFFFFF;align=center;verticalAlign=middle;whiteSpace=wrap;rounded=0;dashed=1;strokeWidth=6;fontSize=20;fontStyle=1;fontColor=#000000;" parent="1" vertex="1">
                    <mxGeometry x="250" y="150" width="330" height="30" as="geometry"/>
                </mxCell>
                <mxCell id="78" value="&lt;font style=&quot;font-size: 26px;&quot; color=&quot;#ffffff&quot;&gt;&lt;b&gt;?&lt;/b&gt;&lt;/font&gt;" style="ellipse;whiteSpace=wrap;html=1;aspect=fixed;strokeColor=default;strokeWidth=1;fontSize=20;fontColor=#000000;fillColor=#1ba1e2;" parent="1" vertex="1">
                    <mxGeometry x="505" y="620" width="80" height="80" as="geometry"/>
                </mxCell>
                <mxCell id="80" value="" style="shape=flexArrow;endArrow=classic;html=1;strokeColor=#66B2FF;strokeWidth=7;fontSize=17;fillColor=#f5f5f5;" parent="1" edge="1">
                    <mxGeometry width="50" height="50" relative="1" as="geometry">
                        <mxPoint x="544.5" y="530" as="sourcePoint"/>
                        <mxPoint x="544.5" y="620" as="targetPoint"/>
                    </mxGeometry>
                </mxCell>
                <mxCell id="81" value="&lt;font face=&quot;Noto Sans Math&quot;&gt;&lt;i&gt;\(S'\)&lt;/i&gt;&lt;/font&gt;" style="text;html=1;strokeColor=none;fillColor=none;align=center;verticalAlign=middle;whiteSpace=wrap;rounded=0;fontSize=21;fontStyle=1;fontColor=#000000;" parent="1" vertex="1">
                    <mxGeometry x="445" y="550" width="120" height="30" as="geometry"/>
                </mxCell>
                <mxCell id="88" value="" style="endArrow=classic;html=1;strokeColor=#66B2FF;strokeWidth=7;fontSize=17;fillColor=#f5f5f5;movable=1;resizable=1;rotatable=1;deletable=1;editable=1;connectable=1;entryX=0.935;entryY=0.232;entryDx=0;entryDy=0;entryPerimeter=0;" parent="1" edge="1" target="73">
                    <mxGeometry width="50" height="50" relative="1" as="geometry">
                        <mxPoint x="590" y="660" as="sourcePoint"/>
                        <mxPoint x="680" y="390" as="targetPoint"/>
                        <Array as="points">
                            <mxPoint x="680" y="660"/>
                        </Array>
                    </mxGeometry>
                </mxCell>
                <mxCell id="89" value="" style="shape=flexArrow;endArrow=classic;html=1;strokeColor=#66B2FF;strokeWidth=7;fontSize=17;fillColor=#f5f5f5;entryX=0;entryY=0.5;entryDx=0;entryDy=0;" parent="1" edge="1">
                    <mxGeometry width="50" height="50" relative="1" as="geometry">
                        <mxPoint x="660" y="280" as="sourcePoint"/>
                        <mxPoint x="800" y="279.5" as="targetPoint"/>
                    </mxGeometry>
                </mxCell>
                <mxCell id="90" value="" style="rounded=1;whiteSpace=wrap;html=1;fillColor=#1ba1e2;" vertex="1" parent="1">
                    <mxGeometry x="190" y="230" width="220" height="110" as="geometry"/>
                </mxCell>
                <mxCell id="91" value="" style="endArrow=none;html=1;strokeWidth=7;fontSize=20;fillColor=#b0e3e6;strokeColor=#66B2FF;" edge="1" parent="1">
                    <mxGeometry width="50" height="50" relative="1" as="geometry">
                        <mxPoint x="200" y="320" as="sourcePoint"/>
                        <mxPoint x="200" y="240" as="targetPoint"/>
                        <Array as="points">
                            <mxPoint x="230" y="280"/>
                        </Array>
                    </mxGeometry>
                </mxCell>
                <mxCell id="92" value="" style="endArrow=none;html=1;strokeWidth=7;fontSize=20;fillColor=#b0e3e6;strokeColor=#66B2FF;" edge="1" parent="1">
                    <mxGeometry width="50" height="50" relative="1" as="geometry">
                        <mxPoint x="240" y="320" as="sourcePoint"/>
                        <mxPoint x="240" y="240" as="targetPoint"/>
                        <Array as="points">
                            <mxPoint x="270" y="280"/>
                        </Array>
                    </mxGeometry>
                </mxCell>
                <mxCell id="93" value="" style="endArrow=none;html=1;strokeWidth=7;fontSize=20;fillColor=#b0e3e6;strokeColor=#66B2FF;" edge="1" parent="1">
                    <mxGeometry width="50" height="50" relative="1" as="geometry">
                        <mxPoint x="285" y="320" as="sourcePoint"/>
                        <mxPoint x="285" y="240" as="targetPoint"/>
                        <Array as="points">
                            <mxPoint x="315" y="280"/>
                        </Array>
                    </mxGeometry>
                </mxCell>
                <mxCell id="94" value="" style="endArrow=none;html=1;strokeWidth=7;fontSize=20;fillColor=#b0e3e6;strokeColor=#66B2FF;" edge="1" parent="1">
                    <mxGeometry width="50" height="50" relative="1" as="geometry">
                        <mxPoint x="330" y="320" as="sourcePoint"/>
                        <mxPoint x="330" y="240" as="targetPoint"/>
                        <Array as="points">
                            <mxPoint x="360" y="280"/>
                        </Array>
                    </mxGeometry>
                </mxCell>
                <mxCell id="95" value="" style="endArrow=none;html=1;strokeWidth=7;fontSize=20;fillColor=#b0e3e6;strokeColor=#66B2FF;" edge="1" parent="1">
                    <mxGeometry width="50" height="50" relative="1" as="geometry">
                        <mxPoint x="370" y="320" as="sourcePoint"/>
                        <mxPoint x="370" y="240" as="targetPoint"/>
                        <Array as="points">
                            <mxPoint x="400" y="280"/>
                        </Array>
                    </mxGeometry>
                </mxCell>
                <mxCell id="96" value="&lt;b style=&quot;font-size: 22px;&quot;&gt;&lt;font style=&quot;font-size: 22px;&quot;&gt;Nicht-deterministische&lt;br&gt;Parameter&lt;br&gt;\(\rightarrow (p_1, p_2,...)\)&lt;br&gt;&lt;/font&gt;&lt;/b&gt;" style="text;html=1;strokeColor=none;fillColor=none;align=center;verticalAlign=middle;whiteSpace=wrap;rounded=0;fontSize=22;fontColor=#FFFFFF;" vertex="1" parent="1">
                    <mxGeometry x="270" y="270" width="60" height="20" as="geometry"/>
                </mxCell>
                <mxCell id="98" value="" style="ellipse;whiteSpace=wrap;html=1;aspect=fixed;fontSize=17;fillColor=#666666;strokeColor=#2D7600;fontColor=#ffffff;gradientColor=default;" vertex="1" parent="1">
                    <mxGeometry x="810" y="220" width="120" height="120" as="geometry"/>
                </mxCell>
                <mxCell id="99" value="&lt;b style=&quot;font-size: 22px;&quot;&gt;Eingabe&lt;/b&gt;" style="text;html=1;strokeColor=none;fillColor=none;align=center;verticalAlign=middle;whiteSpace=wrap;rounded=0;fontSize=22;fontColor=#FFFFFF;" vertex="1" parent="1">
                    <mxGeometry x="840" y="265" width="60" height="30" as="geometry"/>
                </mxCell>
                <mxCell id="100" value="" style="ellipse;whiteSpace=wrap;html=1;aspect=fixed;fontSize=17;fillColor=#666666;strokeColor=#2D7600;fontColor=#ffffff;gradientColor=default;" vertex="1" parent="1">
                    <mxGeometry x="810" y="220" width="120" height="120" as="geometry"/>
                </mxCell>
                <mxCell id="101" value="&lt;b style=&quot;font-size: 22px;&quot;&gt;Ausgabe&lt;br&gt;F&lt;br&gt;&lt;/b&gt;" style="text;html=1;strokeColor=none;fillColor=none;align=center;verticalAlign=middle;whiteSpace=wrap;rounded=0;fontSize=22;fontColor=#FFFFFF;" vertex="1" parent="1">
                    <mxGeometry x="840" y="265" width="60" height="30" as="geometry"/>
                </mxCell>
            </root>
        </mxGraphModel>
    </diagram>
</mxfile>